<svg width="88" height="88" viewBox="0 0 88 88" fill="none" xmlns="http://www.w3.org/2000/svg">
  <rect width="88" height="88" rx="18" fill="#4C33CC"/>
  <g transform="translate(4, 0)">
    <path d="M70.9175 46.1365L79.415 39.6726L73.6794 7.0061L63.2529 17.331L63.7717 20.3026L72.05 12.1107L76.697 38.6242L69.3977 44.1843L68.0825 45.1821L68.5136 46.7728L72.4957 61.5515L48.3987 73.655L46.0971 74.8119L47.3466 77.046L52.0958 85.5344H33.7271L29.6647 80.9865H26.3402L32.6092 87.9999H56.319L49.5239 75.853L75.4256 62.8457L70.9175 46.1365Z" fill="white"/>
    <path d="M61.9523 55.8396L36.0578 68.8397L42.8529 80.9866H19.1359L0 59.5849L60.206 0L65.9417 32.6665L57.4441 39.1304L44.0585 49.3179L58.2698 42.1671L61.9523 55.8396Z" fill="#FFC042"/>
  </g>
</svg>
